# xmcd
#
# Track frame offsets: 
#        200
#        14547
#        31312
#        42562
#        60070
#        74767
#        90867
#        104660
#        125807
#        137450
#        149300
#        166517
#
# Disc length: 2364 seconds
#
# Revision: 0
# Processed by: cddbd v1.4PL0 Copyright (c) Steve Scherf et al.
# Submitted via: ExactAudioCopy v0.90b4
#
DISCID=a0093a0c
DTITLE=Lou Reid - When it rains
DYEAR=1900
DGENRE=Bluegrass
TTITLE0=Ain't it funny
TTITLE1=Cry, cry, darling
TTITLE2=The hand of the higher power
TTITLE3=You better hold on to your heart
TTITLE4=Red, White and Blue
TTITLE5=When it rains
TTITLE6=Calling your name
TTITLE7=Mom's old picture book
TTITLE8=One track man
TTITLE9=Absence makes the heart grow fonder
TTITLE10=The first step to heaven
TTITLE11=Nobody's love is like mine
EXTD=
EXTT0=
EXTT1=
EXTT2=
EXTT3=
EXTT4=
EXTT5=
EXTT6=
EXTT7=
EXTT8=
EXTT9=
EXTT10=
EXTT11=
PLAYORDER=
